<svg version="1.2" xmlns="http://www.w3.org/2000/svg" viewBox="0 0 82 83" width="82" height="83"><defs><clipPath clipPathUnits="userSpaceOnUse" id="cp1"><path d="m-79-83h240v520h-240z" /></clipPath><filter x="-50%" y="-50%" width="200%" height="200%" id="f1" ><feDropShadow dx="-5.51091059616309e-16" dy="9" stdDeviation="3.75" flood-color="#000000" flood-opacity=".4"/></filter></defs><style>.s0{filter:url(#f1);fill:#ffffff}</style><g clip-path="url(#cp1)"><path fill-rule="evenodd" class="s0" d="m71.8 32.2c0 8.3-3.2 16.1-9 21.9c-5.9 5.8-13.6 9.1-21.9 9.1c-8.2 0-16-3.3-21.8-9.1c-5.9-5.8-9.1-13.6-9.1-21.9c0-8.2 3.2-16 9.1-21.8c5.8-5.9 13.6-9.1 21.8-9.1c8.3 0 16 3.2 21.9 9.1c5.8 5.8 9 13.6 9 21.8zm-30.9 27.3c5.7 0 11-1.7 15.4-4.8c-1.3-7.4-7.7-12.9-15.4-12.9c-7.7 0-14.1 5.5-15.4 12.9c4.4 3.1 9.7 4.8 15.4 4.8zm27.3-27.3c0-15-12.2-27.2-27.3-27.2c-15 0-27.3 12.2-27.3 27.2c0 7.9 3.4 15 8.8 20c0.9-3.4 2.9-6.6 5.6-9c1.6-1.5 3.5-2.7 5.6-3.6c-3.7-2.4-6.1-6.5-6.1-11.2c0-7.5 6-13.5 13.4-13.5c7.4 0 13.5 6 13.5 13.5c0 4.7-2.5 8.8-6.2 11.2c2.1 0.9 4 2.1 5.6 3.6c2.7 2.4 4.7 5.6 5.7 9c5.3-5 8.7-12.1 8.7-20zm-27.3 6c5.4 0 9.8-4.4 9.8-9.8c0-5.5-4.4-9.9-9.8-9.9c-5.4 0-9.8 4.4-9.8 9.9c0 5.4 4.4 9.8 9.8 9.8z" /></g></svg>