<svg width="86" height="99" xmlns="http://www.w3.org/2000/svg"><g><path d="M60.296 69.142h-7.485V61.78a9.356 9.356 0 0 0-18.712 0v7.362h-7.485a1.871 1.871 0 0 1-1.871-1.871V48.9c.001-.496.198-.972.548-1.323l14.193-14.19a5.629 5.629 0 0 1 7.942 0l14.193 14.195c.348.35.545.824.548 1.318v18.37a1.871 1.871 0 0 1-1.87 1.87zm3.969-24.21L50.072 30.736a9.328 9.328 0 0 0-4.803-2.558 9.365 9.365 0 0 0-8.43 2.558L22.644 44.932A5.573 5.573 0 0 0 21 48.9v18.37c0 3.1 2.513 5.613 5.614 5.613h33.682c3.1 0 5.614-2.513 5.614-5.613V48.9a5.572 5.572 0 0 0-1.645-3.97zm-15.196 24.21H37.84V61.78a5.614 5.614 0 0 1 11.228 0v7.362z" stroke="#848484" fill="#848484" fill-rule="evenodd"/></g></svg>