<svg width="34.66" height="45.88" xmlns="http://www.w3.org/2000/svg"><g><path d="M17.33 22.942c6.198 0 11.222-5.024 11.222-11.221S23.528.5 17.33.5 6.11 5.524 6.11 11.72c.006 6.195 5.026 11.216 11.22 11.222zm0-18.702a7.48 7.48 0 1 1 0 14.962 7.48 7.48 0 0 1 0-14.962zM17.331 26.68C8.04 26.69.511 34.22.5 43.511a1.87 1.87 0 0 0 3.74 0c0-7.23 5.861-13.09 13.091-13.09 7.23 0 13.091 5.86 13.091 13.09a1.87 1.87 0 0 0 3.74 0c-.01-9.291-7.54-16.82-16.83-16.831z" stroke="#848484" fill="#848484" fill-rule="evenodd"/></g></svg>