<svg width="86" height="99" xmlns="http://www.w3.org/2000/svg"><g><path d="M65.096 69.469L54.008 58.38c6.06-7.411 5.48-18.153-1.186-24.872-.239-.24-.484-.475-.736-.703-7.085-6.41-17.813-6.38-24.858-.096-.267.238-.527.484-.78.737-7.01 7.01-7.293 18.287-.641 25.639a18.536 18.536 0 0 0 10.368 5.805 18.578 18.578 0 0 0 15.206-3.884L62.47 72.095a1.856 1.856 0 0 0 2.627-2.627zm-25.462-7.975c-8.208 0-14.861-6.653-14.861-14.86a14.86 14.86 0 0 1 14.86-14.861c8.208 0 14.861 6.653 14.861 14.86-.009 8.204-6.657 14.852-14.86 14.86z" stroke="#848484" fill="#848484" fill-rule="evenodd"/></g></svg>